# xmcd CD database file
#
# Track frame offsets:
#	150
#	20750
#	36635
#	52330
#	64822
#	81027
#	98157
#	113580
#	128475
#	147342
#
# Disc length: 2139 seconds
#
# Revision: 4
# Processed by: cddbd v1.5.1PL0 Copyright (c) Steve Scherf et al.
# Submitted via: CDex 1.51
#
DISCID=8d08590a
DTITLE=Tanya Tucker - Soon
DYEAR=1993
DGENRE=Country
TTITLE0=You Just Watch Me
TTITLE1=Come On Honey
TTITLE2=Soon
TTITLE3=I Love You Anyway
TTITLE4=Let The Good Times Roll
TTITLE5=We Don't Have To Do This
TTITLE6=Hangin In
TTITLE7=Sneaky Moon
TTITLE8=Silence Is King
TTITLE9=A Blue Guitar
EXTD=YEAR: 1993
EXTT0=
EXTT1=
EXTT2=
EXTT3=
EXTT4=
EXTT5=
EXTT6=
EXTT7=
EXTT8=
EXTT9=
PLAYORDER=
